<?xml version="1.0" encoding="utf-8"?>
<!-- Generator: Adobe Illustrator 24.0.1, SVG Export Plug-In . SVG Version: 6.00 Build 0)  -->
<svg version="1.1" id="Layer_1" xmlns="http://www.w3.org/2000/svg" xmlns:xlink="http://www.w3.org/1999/xlink" x="0px" y="0px"
	 viewBox="0 0 288 279.7" style="enable-background:new 0 0 288 279.7;" xml:space="preserve">
<style type="text/css">
	.st0{fill:#FFFFFF;}
	.st1{fill:#021D35;}
</style>
<g id="XMLID_751_">
	<path id="XMLID_754_" class="st0" d="M144,276.1L144,276.1c-75.2,0-136.2-61-136.2-136.2l0,0C7.8,64.7,68.8,3.7,144,3.7l0,0
		c75.2,0,136.2,61,136.2,136.2l0,0C280.2,215.1,219.2,276.1,144,276.1z"/>
	<path id="XMLID_752_" class="st1" d="M123.2,222.2h33.1v-83h23.1l2.5-27.8h-25.6c0,0,0-10.4,0-15.8c0-6.6,1.3-9.1,7.7-9.1
		c5.1,0,17.9,0,17.9,0V57.6c0,0-18.9,0-23,0c-24.7,0-35.8,10.9-35.8,31.7c0,18.1,0,22.2,0,22.2H106v28.1h17.2V222.2z"/>
</g>
<g>
</g>
<g>
</g>
<g>
</g>
<g>
</g>
<g>
</g>
</svg>
