<?xml version="1.0" encoding="utf-8"?>
<!-- Generator: Adobe Illustrator 24.0.1, SVG Export Plug-In . SVG Version: 6.00 Build 0)  -->
<svg version="1.1" id="Layer_1" xmlns="http://www.w3.org/2000/svg" xmlns:xlink="http://www.w3.org/1999/xlink" x="0px" y="0px"
	 viewBox="0 0 288 279.7" style="enable-background:new 0 0 288 279.7;" xml:space="preserve">
<style type="text/css">
	.st0{fill:#FFFFFF;}
	.st1{fill:#021D35;}
</style>
<g id="XMLID_320_">
	<path id="XMLID_750_" class="st0" d="M144,276.8L144,276.8c-75.4,0-136.5-61.1-136.5-136.5l0,0C7.5,64.9,68.6,3.8,144,3.8h0
		c75.4,0,136.5,61.1,136.5,136.5l0,0C280.5,215.7,219.4,276.8,144,276.8z"/>
	<g id="XMLID_313_">
		<path id="XMLID_747_" class="st1" d="M144,78.9c20,0,22.4,0.1,30.2,0.4c7.3,0.3,11.3,1.6,13.9,2.6c3.5,1.4,6,3,8.6,5.6
			c2.6,2.6,4.2,5.1,5.6,8.6c1,2.6,2.2,6.6,2.6,13.9c0.4,7.9,0.4,10.3,0.4,30.2c0,20-0.1,22.4-0.4,30.2c-0.3,7.3-1.6,11.3-2.6,13.9
			c-1.4,3.5-3,6-5.6,8.6c-2.6,2.6-5.1,4.2-8.6,5.6c-2.6,1-6.6,2.2-13.9,2.6c-7.9,0.4-10.3,0.4-30.2,0.4c-20,0-22.4-0.1-30.2-0.4
			c-7.3-0.3-11.3-1.6-13.9-2.6c-3.5-1.4-6-3-8.6-5.6c-2.6-2.6-4.2-5.1-5.6-8.6c-1-2.6-2.2-6.6-2.6-13.9c-0.4-7.9-0.4-10.3-0.4-30.2
			c0-20,0.1-22.4,0.4-30.2c0.3-7.3,1.6-11.3,2.6-13.9c1.4-3.5,3-6,5.6-8.6c2.6-2.6,5.1-4.2,8.6-5.6c2.6-1,6.6-2.2,13.9-2.6
			C121.6,79,124,78.9,144,78.9 M144,65.5c-20.3,0-22.9,0.1-30.9,0.5c-8,0.4-13.4,1.6-18.2,3.5c-4.9,1.9-9.1,4.5-13.3,8.6
			c-4.2,4.2-6.7,8.3-8.6,13.3c-1.9,4.8-3.1,10.2-3.5,18.2c-0.4,8-0.5,10.5-0.5,30.9s0.1,22.9,0.5,30.9c0.4,8,1.6,13.4,3.5,18.2
			c1.9,4.9,4.5,9.1,8.6,13.3c4.2,4.2,8.3,6.7,13.3,8.6c4.8,1.8,10.2,3.1,18.2,3.5c8,0.4,10.5,0.4,30.9,0.4c20.3,0,22.9-0.1,30.9-0.4
			c8-0.4,13.4-1.6,18.2-3.5c4.9-1.9,9.1-4.5,13.3-8.6c4.2-4.2,6.7-8.3,8.6-13.3c1.8-4.8,3.1-10.2,3.5-18.2c0.4-8,0.4-10.5,0.4-30.9
			s-0.1-22.9-0.4-30.9c-0.4-8-1.6-13.4-3.5-18.2c-1.9-4.9-4.5-9.1-8.6-13.3c-4.2-4.2-8.3-6.7-13.3-8.6c-4.8-1.8-10.2-3.1-18.2-3.5
			C166.9,65.5,164.3,65.5,144,65.5"/>
		<path id="XMLID_744_" class="st1" d="M144,101.9c-21.2,0-38.4,17.2-38.4,38.4c0,21.2,17.2,38.4,38.4,38.4
			c21.2,0,38.4-17.2,38.4-38.4C182.4,119.1,165.2,101.9,144,101.9 M144,165.2c-13.8,0-24.9-11.2-24.9-24.9
			c0-13.8,11.2-24.9,24.9-24.9c13.8,0,24.9,11.2,24.9,24.9C168.9,154.1,157.8,165.2,144,165.2"/>
		<path id="XMLID_742_" class="st1" d="M192.9,100.3c0,5-4,9-9,9c-5,0-9-4-9-9c0-5,4-9,9-9C188.9,91.4,192.9,95.4,192.9,100.3"/>
	</g>
</g>
<g>
</g>
<g>
</g>
<g>
</g>
<g>
</g>
<g>
</g>
</svg>
